<?xml version="1.0" encoding="UTF-8"?>
<!DOCTYPE svg PUBLIC "-//W3C//DTD SVG 1.1//EN" "http://www.w3.org/Graphics/SVG/1.1/DTD/svg11.dtd">
<!-- Creator: CorelDRAW Home & Student X8 -->
<svg xmlns="http://www.w3.org/2000/svg" xml:space="preserve" width="100%" height="100%" version="1.1" style="shape-rendering:geometricPrecision; text-rendering:geometricPrecision; image-rendering:optimizeQuality; fill-rule:evenodd; clip-rule:evenodd"
viewBox="0 0 24977 12515"
 xmlns:xlink="http://www.w3.org/1999/xlink">
 <defs>
  <style type="text/css">
   <![CDATA[
    .fil0 {fill:none}
    .fil1 {fill:#3877B9}
    .fil2 {fill:#D9E0F3}
   ]]>
  </style>
 </defs>
 <g id="Camada_x0020_1">
  <metadata id="CorelCorpID_0Corel-Layer"/>
  <polygon class="fil0" points="0,0 24977,0 24977,12515 0,12515 "/>
  <path class="fil1" d="M19162 260c3330,1230 5548,3379 5548,5931 0,2551 -2386,4864 -5925,6064l-12606 0c-3538,-1200 -5925,-3513 -5925,-6064 0,-2552 2219,-4701 5549,-5931l13359 0z"/>
  <path class="fil2" d="M21604 1680c-143,-133 -467,-355 -641,-425l-431 -25c-22,39 57,32 36,75 -222,-93 -201,-33 -456,-61 -172,-19 -191,-86 -461,-87 -324,-1 -545,-107 -861,-168l94 89c2,3 5,14 7,17 2,6 4,26 11,36 -293,-13 -384,38 -595,-67 -36,-18 35,-60 -178,-53l-421 -8c-253,-25 -222,-35 -398,33 6,-6 17,-23 20,-17l140 -140 -506 -96c-301,-25 6,33 -279,76 -110,16 -183,8 -315,36 -68,100 -14,-44 -14,54 0,125 17,-18 14,38l-247 7c106,133 -6,32 168,104l-384 9c-4,0 -16,-2 -23,0 7,8 15,11 19,26 31,135 236,113 354,242 -71,-50 -31,-33 -134,-85l-45 88c-39,67 21,25 -52,75 -48,-50 -58,-241 -209,-364 -66,-53 -155,-102 -193,27 -45,150 -26,42 44,116l118 87c-88,-24 -445,-92 -536,-131 51,67 91,41 131,127 -275,-99 -504,56 -634,87l-30 -68c-56,-51 -26,-28 -114,-41 24,121 21,77 67,165 -215,-27 -198,-136 -560,-205 -400,-77 -339,-121 -741,-4 -164,47 -97,-8 -173,134 -110,207 -253,238 -429,359l61 234c115,22 186,-11 247,-77 107,178 115,134 49,313 11,-5 36,-20 42,-22l84 -22c5,-1 16,-2 22,-4 114,-35 97,-93 153,-192l32 -47c5,-6 15,-16 19,-21 4,-6 14,-14 21,-21 -5,-9 -15,-29 -17,-24 -4,11 -57,-36 -60,-146 63,-46 136,-181 217,-208 199,-65 109,21 132,44 -66,43 -136,60 -187,168 127,202 -33,137 450,104 -9,9 -25,5 -33,21l-97 46c-11,3 -110,9 -119,11l23 159c-80,-50 -39,-40 -146,-33 -56,302 -49,209 -357,229 -373,25 -184,-97 -250,-223 -164,55 -123,77 -58,231 -75,56 -59,-2 -169,59 -58,32 -42,27 -80,67 -92,94 -153,163 -284,211 -7,3 -17,6 -24,8l-49 16c-7,3 -17,6 -24,9l-120 74c162,39 247,91 168,306l-418 9c-9,37 -11,66 -13,86l-33 234c-20,233 217,70 170,297 -28,134 -117,122 -224,185l-19 276c-249,158 -187,-13 -368,368 -124,262 1,279 -92,647 -41,160 63,260 153,375 445,568 230,366 637,361 398,-6 437,-135 577,-63 103,52 51,105 172,114 11,0 120,-14 126,-15l-29 88c1,1 10,0 11,0 164,29 -92,-103 47,2 10,171 -53,256 -19,375 9,32 130,213 161,275 99,201 159,456 -5,607l14 63c-3,73 19,62 -40,62l9 93 -7 131c165,253 137,283 196,599 30,158 63,162 127,299 77,167 22,115 49,300 320,87 695,-71 896,-418 80,-139 29,-219 175,-263l93 -153 1 -61c-44,-30 -29,59 -42,-103 -39,-124 -9,-39 51,-55 57,-118 70,-131 186,-193l14 12c23,-20 36,-32 58,-57 9,-11 50,-65 53,-69l12 -44 12 10c3,-42 3,-138 7,-176 16,-132 -16,-57 41,-138l-19 -22c-101,-41 -107,-85 -109,-226l45 -281c110,-327 754,-608 715,-1152 -149,-12 -413,141 -493,24 -66,-95 57,-35 -100,-199 -106,-112 -127,-76 -181,-206l-228 -478c-38,-71 -228,-431 -234,-476 46,193 105,45 244,251l192 329c114,278 290,243 302,678 325,-75 367,-117 605,-278 86,-58 181,-72 253,-167 32,-43 131,-217 152,-270l-255 -226c-8,-10 -18,-20 -25,-28 -7,-8 -16,-19 -25,-28 -21,95 2,142 -119,148 -237,11 -38,4 -96,-45 -7,-6 -22,-30 -28,-36l-22 -27c-2,-2 -10,-8 -12,-10l-27 -22c-88,-87 -148,-176 -186,-301 276,15 79,42 243,179 112,94 245,22 375,118 23,16 7,18 63,43 152,65 348,37 505,6 95,102 96,135 247,202 16,85 -132,-84 32,138 280,-9 46,-43 137,-65 3,-1 11,-41 32,92 36,240 231,745 351,916 78,-43 164,-145 174,-272 20,-252 -72,-188 96,-349l363 -371c92,-46 85,-8 192,-90l272 494c93,34 96,-57 157,-49 147,300 66,427 116,597 30,101 101,96 155,260l163 270c-120,-53 -132,-51 -239,-158 -92,-93 -139,-135 -256,-141 28,84 111,160 166,230 141,182 196,419 373,547 37,26 34,19 65,42 36,28 26,14 47,42 74,97 -197,43 584,194l-52 -151c-116,53 -393,-4 -498,-103 13,-182 97,-207 3,-254 -5,-3 -16,-6 -21,-8l-72 -20c-2,-6 3,-24 3,-19l7 -34c15,-111 49,14 -3,-34l-83 -54c9,-105 70,-72 25,-246 -42,-161 -36,-132 -133,-216 -236,-204 -155,-219 -144,-498 165,103 276,169 352,344 114,-92 115,-95 260,-174 29,-286 -19,-283 -190,-448 -129,-124 -123,-261 71,-316 6,7 16,9 18,22l35 84c3,147 -35,-78 -39,128 118,8 83,53 115,-58 39,-137 4,-15 -2,-81 0,-2 -16,-60 -16,-97 364,-38 443,-117 537,-444l-18 -286c-46,-111 -160,-197 -228,-289l122 -162c-81,-15 -183,-6 -202,-10 -81,-15 -24,-29 -152,-69 7,-6 18,-26 22,-20 3,7 17,-15 21,-20l91 -142c102,46 35,20 98,107l41 62c54,-93 -30,-89 156,-58 35,86 88,109 142,175 49,61 52,143 69,246 8,-5 19,-24 23,-17l176 -96c-59,-162 -132,-197 -245,-306 0,-5 5,-19 5,-16l34 -203c71,-42 2,-5 84,-26 68,-17 8,20 118,-27 119,-121 77,-494 -116,-718l338 428c76,98 43,82 143,35l-110 -100c-3,-3 -11,-10 -17,-16 13,-75 -6,-23 19,-44l27 -14c2,-1 12,-2 17,-5 -222,-100 -248,-336 -424,-327 -144,7 -274,-21 -438,-104 41,-72 60,-176 120,-266 207,-9 450,28 625,5 -7,-9 -47,-63 -47,-68 -12,-91 -12,-56 22,-109l200 59 47 -108c144,219 -46,281 60,425 84,113 269,249 341,367l34 -63c3,-7 10,-21 13,-30 4,-12 16,-96 16,-96 14,-207 -144,-254 -275,-403 111,-63 171,-92 342,-26 24,-139 77,-176 217,-164l6 -43zm1411 6114c-66,-58 -22,-2 -77,-78 27,175 129,190 179,209 -55,-135 39,-6 -102,-131zm-14816 -7075c131,57 152,47 200,0 -94,-56 -106,-82 -200,0zm-50 118c60,118 -47,52 161,77l16 -88 -177 11zm12239 4914c9,-5 21,-25 27,-16l57 -26c57,-17 44,-11 99,-18 -29,115 -29,71 30,137 6,-5 15,-24 17,-18l-17 -230c-12,4 -65,27 -73,31 -183,80 -81,4 -140,140zm-12485 -4676c181,88 192,102 296,-84 -137,-2 -104,-14 -237,53 -4,2 -15,7 -19,9l-40 22zm13149 8413c139,-47 207,-94 252,-206l-209 -6 -43 212zm-12127 818c0,-7 24,9 18,12 -95,44 -23,-15 -25,-16 0,-1 7,7 7,4zm-269 -178c36,80 37,130 111,168 47,25 98,19 159,38 63,-150 14,-46 43,-63 -309,-176 -113,-123 -305,-152 51,-66 13,-109 15,-125l34 -142c3,-7 8,-17 12,-25l25 -51c3,-6 9,-17 13,-26 -72,-53 -84,-47 -141,-105 29,-86 20,-46 61,-129 76,-151 -54,-63 92,-120l-81 -49c-5,-3 -17,-8 -22,-11l-44 -20c117,-94 153,25 170,-190 281,-8 362,-202 136,-319l41 -41c8,-8 57,42 96,50 65,12 80,3 160,-2 35,-135 94,-221 141,-312 128,-243 54,-219 103,-390 162,-303 576,117 526,-925 136,-69 285,-299 250,-506 -19,-48 -273,-215 -365,-233 -247,-50 -196,-72 -431,-159 -100,49 -34,-11 -112,97 -58,-44 15,-36 22,-77 13,-77 12,-12 -16,-63 -271,34 4,22 -194,104 223,-244 110,-472 -231,-544 -143,-30 -170,-108 -274,-195 -136,-114 -18,-122 -103,-140 -4,0 -29,-6 -34,-7 -79,-21 -134,50 -326,-13l-129 -60c-54,-13 -93,15 -130,48l-25 -110c-120,84 -193,71 -266,166 -12,15 -41,74 -70,109 -209,6 92,-45 -162,-62 -86,-5 -57,52 -189,26 -210,-268 13,-257 -74,-489l-325 -16c5,-5 11,-32 14,-26l85 -199c52,-116 106,-171 4,-175 -225,-7 -218,334 -482,202 -214,-107 -59,-573 -5,-652 179,-256 319,-112 452,-115 6,0 15,35 88,-73 3,-4 8,-15 13,-23l308 56c43,11 76,263 150,329 134,-231 -42,-270 56,-471 61,-120 161,-117 287,-207 205,-147 67,-205 159,-363 2,12 -4,36 -3,42 22,95 -13,27 37,93l262 -275c100,-35 10,-28 151,-23 -40,-108 -54,-115 92,-188 71,-36 194,-78 254,-103 -67,85 -101,-1 -69,111 24,86 239,-56 296,-90 155,-91 84,32 99,-141 -199,103 -40,46 -170,51l-22 7c-4,0 -43,18 -52,-34 -29,-172 -5,-18 65,-173l-168 -15c176,-110 138,-51 279,28l4 -51c-5,-145 -36,88 -4,-33 159,1 184,-30 287,-62l65 -30 -35 -4 77 61c6,6 14,19 22,29 15,-117 -42,-73 41,-125l8 -14c0,-145 28,-61 -22,-156 -48,-4 -36,68 -37,-71l-94 -6c-23,-23 -54,-50 -83,-79 34,-48 19,-15 20,-117l-7 -37c-55,0 -35,10 -31,-56l-23 -66c-129,96 -10,92 -167,118 -249,41 86,-128 -170,-219 -67,-23 -196,-14 -293,-21 -43,301 -73,77 -107,329 -31,223 -137,99 -238,234 -69,92 -3,111 -124,212 -66,-55 -55,-179 -21,-267 -108,-30 -151,-35 -230,-74 -45,-22 -56,-31 -94,-50 -7,-3 -16,-8 -24,-11l-101 -46c-11,-150 17,-29 -41,-151 128,-68 190,-133 305,-203 105,-63 242,-50 340,-140 39,81 -45,8 0,110l305 -12c-92,-109 -103,-165 -272,-99 0,0 15,-53 110,-80 49,-14 78,4 148,-14 190,-52 70,14 132,-94 59,-102 59,-41 -3,-113l144 39c2,1 11,3 13,4l115 -37c4,132 19,66 -89,124l166 53c9,4 23,8 32,14 -198,52 -26,38 -200,74 -211,45 -112,-34 -154,114 392,-92 88,7 501,135l14 -77c-146,1 -5,6 -62,-36 114,58 4,-18 68,40l93 -14 34 -24 5 -61c-58,0 -38,12 -38,-57l-36 -17 7 -31c10,-12 5,-82 30,17l76 34c106,-18 115,-16 196,-98 -314,-151 -178,-55 -169,-250 -294,-89 -161,-146 -475,-95l58 -21c7,-3 20,-7 29,-11 9,-3 20,-7 29,-10l81 -37c-86,1 -208,-3 -287,4 -56,5 -103,9 -136,60 -43,68 -16,-31 -24,83l-18 -48c-63,-205 153,21 -34,-107l-214 148c37,60 124,53 127,125l-193 112c-52,-101 50,-59 -23,-106l-50 -184 253 -80c-30,-19 -143,-52 -223,-15 -182,84 -178,176 -228,281 -35,72 -82,65 -155,123 23,-57 53,-91 55,-95 16,-38 82,-35 -5,-60 -132,-39 -97,38 -129,127 -201,-17 -246,27 -341,-103 233,28 192,-29 344,-19l-87 -150c-1,-7 -3,-19 -4,-25 -1,-7 -4,-21 -5,-27 -1,-5 -1,-18 -4,-27 -119,60 -62,67 -136,57 -8,-1 -47,-15 -55,-17l-144 -38c-8,-3 -16,-9 -24,-12 -106,-48 -455,-92 -537,98 125,73 378,-69 519,-89 -108,48 -180,56 -266,128l113 35c9,3 20,6 29,9 9,3 20,7 28,10l-211 2c37,34 95,95 188,104 127,11 88,-53 209,15 -183,86 -121,43 -384,40l0 -88c-81,4 -360,-33 -384,-35 -151,-17 129,25 -56,-12 -108,-22 -158,21 -265,-5 -25,47 91,11 -39,63l-79 0c-1,-2 -8,-10 -9,-11l-14 -30c-379,102 -751,-200 -1352,-8 -288,93 -251,39 -205,226 -145,-1 -257,-23 -362,71l84 33c88,31 17,-16 99,34 -163,43 -384,112 -478,251 109,69 135,-64 37,117l212 22c-123,42 -463,143 -554,233l562 -180c183,-46 114,60 209,-52 204,-238 -148,25 51,-72 100,-48 46,-24 109,13 28,-47 -101,-45 175,-141 -151,60 -68,18 -139,114 111,-17 93,-17 187,-45l114 -22c22,2 279,70 305,79 60,143 -12,166 69,264 3,3 11,10 14,14l76 302c60,127 22,-64 79,132 -68,-79 -68,-114 -198,-117 40,66 74,123 154,143l-20 47c-51,31 -366,437 -352,732 16,355 54,180 164,359 36,57 57,184 76,256 55,206 36,63 -22,188 184,95 131,245 265,324 -4,-35 -70,-246 -92,-317 -10,-32 -54,-136 -60,-159l16 -163c116,106 135,403 270,550 67,73 93,100 102,203 12,148 -19,175 122,246l119 57c261,150 167,131 455,77 121,275 298,148 422,282 78,84 57,147 134,219l63 48c75,54 69,5 127,103 11,-4 24,-23 29,-15l133 -97c306,338 -144,586 -166,736 9,67 44,121 44,127 -5,45 -59,-6 -39,190 27,67 140,160 198,279 222,459 108,385 428,564 313,175 157,786 200,1138 30,241 -26,592 84,824 13,-28 0,-9 9,-54l18 -79c29,46 2,-17 39,82 1,3 30,113 30,115l-64 157c-5,7 -16,16 -24,24 183,35 104,90 154,201 64,145 89,209 253,214 23,123 9,-104 -19,65 0,4 -3,27 -2,31 50,-28 83,-54 104,-78zm-888 -5223c176,12 274,47 384,-68l-281 -82c-38,116 55,3 -27,98 -81,95 -17,-79 -76,52zm2957 6955c-54,-146 -56,-136 -248,-127 -38,52 -52,84 -124,150l372 -23zm10066 -8680c1,0 -13,79 76,-13l18 -49c60,34 25,51 91,32 69,-20 9,26 97,-103l-319 -133c5,13 40,105 40,106l-3 160zm-13653 1451c52,-10 37,-7 73,-22l107 -46c156,140 -4,-78 261,206l190 -11c-76,-78 -494,-384 -631,-127zm4826 -2395c23,107 -6,103 -27,198l237 -45 43 -201c-61,-2 -69,-9 -129,8l-124 40zm1150 -1513c3,-2 11,1 11,6 0,1 4,2 4,2 -1,0 -66,20 -15,-8zm-150 -22c165,57 95,51 231,123 185,-33 -129,75 54,-20 0,0 54,-37 64,-39 188,-36 -173,-67 80,10 11,4 65,32 76,37 -69,-126 11,-31 -82,-124 135,12 116,45 217,-40 -100,-27 -245,-19 -351,13 -144,44 -168,-44 -289,40zm1921 401c88,59 145,70 280,81 -55,-56 -93,-82 -130,-157 213,-193 281,-93 412,-201 -36,-15 -505,-22 -562,277zm-3531 397c33,-21 111,36 40,15 0,-1 -103,25 -40,-15zm-13 -4c30,160 94,147 305,128 142,-12 313,-36 94,-182 -26,6 -188,34 -218,35 -171,9 45,-15 -98,-10 -81,3 -22,-16 -83,29zm-3559 -755c6,10 37,46 38,54 4,56 9,21 -31,106 -31,-11 -99,-30 -123,-48 -60,-45 -20,-41 -45,-86 -165,31 -227,0 -350,101l196 -10c-47,71 -74,35 7,70l157 12c131,-14 243,-51 344,-20 53,-34 48,-46 -126,-83l180 -119c-171,-90 -3,41 -247,23zm12737 4728l16 13c-2,-1 -21,-8 -16,-13zm-325 -350l108 103c199,122 133,-43 132,154 -149,-58 14,29 -70,-42l98 258c152,-118 120,-10 140,-260 -127,56 97,-110 -47,33 -5,5 -25,34 -32,39l-57 19c-4,0 -17,-5 -25,-8l18 -22c98,-178 38,-61 35,-122 -83,-74 -84,-48 -168,-100 22,-153 115,-235 -76,-278 -51,66 -51,168 -56,226zm95 1057l-9 49c-10,34 -17,54 -25,80 -81,251 -25,169 -4,248l34 127c65,-100 29,-92 52,-228l79 172c46,71 24,28 46,55 14,-29 16,-4 13,-54l-64 -210 76 -68c6,-7 15,-20 20,-26 6,-7 14,-19 21,-28 -230,50 -170,76 -216,-79 373,123 320,-44 326,-87 -126,109 -157,35 -349,49zm-16567 -4758l158 178c118,-26 190,-76 341,-114l-141 -146c-62,-54 5,-22 -95,-53 -117,55 -143,94 -263,135zm-96 76c20,14 -41,78 73,23 144,-68 9,-52 1,-63l-74 40zm8510 496l206 282 -55 60c-99,122 -58,99 29,116l-115 113 293 -67c279,-96 -83,-318 -111,-356 -50,-195 -4,169 5,-46l-5 -95c-168,-23 86,-20 -127,-30 -46,-2 -86,7 -120,23zm10972 6870c-63,78 19,106 -63,226 -99,143 -76,-4 -103,179 -8,3 -20,5 -25,5 -5,1 -19,3 -25,4 -108,10 -66,-19 -176,47 -294,179 -466,199 -581,352 181,70 154,27 288,-77 173,-136 514,-217 865,-515 -222,-185 -43,-68 -180,-221zm-2364 -5144l-96 72c-10,6 -25,13 -37,20 9,-9 19,-37 24,-28l109 -64zm171 -245l-93 82c-153,145 -82,-4 -310,243 115,89 42,58 126,163 77,-119 -1,-111 169,-166l-59 -91c135,17 29,-9 137,69 49,-61 31,-53 83,-69 76,-23 56,-4 154,-53 -88,-279 -9,-320 -258,-453 17,167 45,133 51,275zm-5670 4515l-18 66 44 76 22 1 103 1 18 9 68 -54c6,-4 18,-10 26,-15l-16 -30c16,-130 -6,-59 50,-82l-15 -19c16,-140 -5,-64 50,-88l-3 -41c68,-184 182,-479 106,-666l-387 373c-22,144 38,87 2,244 -26,108 -84,103 -50,225zm-6055 -7449l-40 -13 -89 42c-10,7 -20,13 -30,20l96 81c-3,2 -10,10 -12,13l-11 29c-1,2 -1,10 -2,15 -236,-21 -149,39 -388,85l357 -138c-130,-55 -114,-78 -237,-87l-182 44c10,74 6,36 26,98l55 156c-11,-7 -28,-27 -34,-18l-59 -33c-93,-67 -32,-92 -137,-122l-13 53c-2,3 -8,13 -10,17 -3,3 -11,13 -14,16 -5,6 -26,24 -36,31 119,52 53,31 82,59 0,1 -99,38 97,60 172,-17 367,28 442,-49 -93,-59 -196,33 -337,-64 274,5 470,37 717,-138 193,-137 92,54 479,-106 11,-4 42,-18 52,-23l-569 -51c-55,6 -111,20 -203,23zm10385 5616l97 331 357 77 210 -426c-172,-92 -78,-170 -10,-274 -75,-56 -104,-85 -155,-114 -79,68 -143,144 -220,220 -44,44 -41,54 -108,102l-145 73c-6,3 -18,6 -26,11zm1471 151c-2,9 -1,14 0,26 12,249 185,237 283,271 194,69 221,124 100,280 251,-30 102,7 230,44 184,53 132,-231 360,-6 105,103 40,53 212,134 -81,-232 -109,-40 -172,-279 -64,-243 -295,-291 -517,-367 -211,-72 -84,24 -276,97 -53,-132 -36,-230 -220,-200zm-9505 -5756c41,-15 114,29 38,11 0,0 -66,0 -38,-11zm-2016 170c66,53 7,24 205,51l-182 31c207,128 144,-25 492,77l-13 232c57,42 23,4 128,40 -45,32 6,11 -69,30 -26,6 -94,12 -119,15 96,82 102,37 160,46 5,54 -9,49 -170,120 -7,348 27,398 231,450l115 27c83,-82 148,-235 245,-306 59,-44 221,-70 347,-143 211,-122 495,-7 417,-187 -25,-60 -106,44 -5,-39 67,-56 57,4 205,17 -42,-105 -77,-62 -115,-164l160 -20c158,-59 42,-45 194,-64 -122,-310 170,-311 228,-333 -43,-28 -9,-22 -84,-35 -106,-19 -161,13 -253,42 -42,-99 41,19 0,-91 -422,-85 -769,21 -1064,39 -134,8 -125,-25 -274,-13l-509 140c-84,32 -180,28 -270,38zm12451 7031c-58,0 -46,16 -46,-38 -73,-54 -114,-36 -46,-181 -52,-88 -34,-64 -43,-195l-2 -5c-215,-60 -24,-99 -142,-264 -61,120 -50,126 -73,247l-82 244c-222,31 -10,22 -319,-160 24,-167 -8,-36 45,-156 1,-1 36,-46 49,-80l-267 -60c-158,173 -69,0 -242,274l-176 -99c-44,62 -139,176 -217,225l-31 15c-95,58 -123,153 -167,192 -212,181 -445,-25 -536,402 -30,192 -50,-19 -39,171 6,103 19,78 17,181 -6,244 -220,418 80,362l331 -65c167,-38 6,-50 344,-120 309,-64 149,-16 359,2l54 191 166 -126c-54,104 -19,75 -104,131 61,28 70,-6 81,-3 0,0 -12,119 -11,123 27,245 414,166 560,97 178,-85 212,-252 350,-364 112,-91 253,-225 272,-439 11,-120 -12,-155 -63,-261l-60 -118c-31,-70 -21,-36 -42,-123zm-16270 4332l473 175 12606 0c31,-22 -2,-8 76,-46 42,-21 54,-25 105,-42 61,-19 122,-33 195,-46l74 -32c-66,-63 -6,-26 -104,-58 -35,-11 -79,-11 -119,-18 -126,-24 -101,-6 -178,-76 59,-143 258,-108 386,-146 135,-40 66,-32 155,-96 244,-177 630,-165 897,-309l-439 -163c-96,-29 -56,-8 -122,-15l-574 -175c-11,-3 -36,-13 -45,-15 -4,-1 -14,-4 -18,-4l-197 31c-231,47 -379,28 -607,38 -195,8 -196,-52 -315,-54 -159,-2 -97,71 -287,34 -166,-32 -141,-58 -319,-20 -227,48 -431,-6 -621,23 -270,40 -691,127 -915,244 -136,70 -88,93 -283,103 46,-56 26,-24 67,-65l180 -187c-173,-63 -371,-14 -546,-96 -124,-57 -194,-73 -338,-8l-153 55c-101,20 -490,127 -494,127 -146,1 -16,-77 -223,-36 -59,11 -153,54 -255,72l-1721 68c-88,3 -111,51 -264,99 -22,74 27,65 29,54 0,-3 6,-2 7,1 -64,25 -41,15 -105,47l-337 89c-118,11 -323,24 -348,148l305 -3c-72,79 -12,42 -136,76 -3,1 -111,14 -120,15 -99,11 -170,30 -263,45 -904,142 -1320,-99 -1532,-110l113 -71c95,-58 1,40 41,-21l-279 -51c37,-19 12,-16 79,-23 292,-33 138,72 565,-77 -17,-244 -292,-343 -401,-414 25,-77 -12,9 44,-73 6,-7 24,-30 30,-38l76 -149c-157,47 -273,100 -238,270 32,156 84,113 158,266 -113,64 -106,43 -284,61 83,-50 127,-26 223,-76 -44,-103 -134,-152 -237,-199l-35 151c-50,-36 -110,-118 -140,-64 24,45 11,61 87,80 9,2 21,4 29,5l107 6 -70 72c-53,50 -27,21 -57,47 -21,-10 -77,-49 -82,-53 -30,-19 24,-15 -51,-26 -112,133 -192,65 -376,35 -140,-22 -214,28 -400,11 -50,-11 -41,-90 -312,-87l142 45c3,-7 16,4 23,9 -76,14 -131,8 -184,52 46,9 95,12 147,30l129 75c-165,-25 -297,10 -399,-52 -239,-52 144,37 -74,-68 -78,-37 -46,10 -60,86 -224,-70 -144,-3 -362,-22 -270,-25 -136,-48 -169,-13 -1,1 -5,19 -6,15 0,-5 -1,10 -4,15 -257,-27 -537,9 -776,56 -46,102 -1,-37 0,64 1,71 38,-33 0,42 -136,16 -303,-50 -431,7 113,18 723,96 801,148 -86,66 -119,34 -245,27l111 44c35,13 66,23 106,38 203,73 478,67 706,72 -292,98 -1252,-52 -1537,-8 -110,16 -9,-24 -85,32zm3545 -9555c9,57 24,46 -31,46l-102 182c124,-11 280,12 313,54l70 4 27 -47 -34 -105 3 -16c16,-96 33,-70 -68,-63 -66,9 -19,9 -26,-38l-120 -55c6,53 19,42 -32,38zm3998 366c96,0 93,58 166,112 87,65 174,63 229,163 69,125 -29,211 323,288 -14,-98 -37,-98 -93,-160 73,-48 104,-68 182,-54l36 98c56,236 -58,-92 15,84 21,50 86,101 141,119 102,34 328,7 448,-7l-52 400c-187,10 -442,18 -580,-36 -259,-100 -252,-198 -330,100l-599 -257c212,-451 -483,-209 -716,-128 -182,63 -213,11 -260,-37l88 -34c53,-17 65,-13 114,-31 166,-59 160,-182 184,-235 51,-112 60,-56 135,-143l56 -92c216,33 149,-3 317,-56 107,90 87,114 195,187 153,102 183,36 221,193 -115,100 -74,25 -200,70l132 96c5,-6 13,-24 15,-19 12,30 123,-233 177,-253 1,-1 10,0 15,-3 -140,-80 -342,-184 -359,-365zm529 523c50,167 -39,95 130,132 -29,-171 32,-86 -130,-132zm2158 -555c21,-37 57,-41 81,-57 51,79 101,127 16,221 -88,-17 -59,-8 -118,-36l21 -128zm-484 119c79,63 77,62 161,149 73,77 -12,13 73,33l86 30c-8,5 -22,0 -25,12 -25,94 5,-30 -43,25 -76,87 10,61 80,296 -203,-5 -166,5 -307,-84 -26,-121 -4,-117 48,-185 -146,-47 -234,-203 -266,-341 104,-89 162,-124 323,-130l-130 195zm-778 -42c221,63 254,118 274,217 -143,115 -241,5 -380,-11 -221,-25 -143,88 -409,40 -10,-189 56,-267 164,-368 180,86 123,142 169,137 185,-98 46,-31 65,-68 36,-72 -75,-47 -11,-28l120 -84c35,50 20,-4 23,84 0,0 -14,74 -15,81z"/>
 </g>
</svg>
