<?xml version="1.0" encoding="UTF-8"?>
<!DOCTYPE svg PUBLIC "-//W3C//DTD SVG 1.1//EN" "http://www.w3.org/Graphics/SVG/1.1/DTD/svg11.dtd">
<!-- Creator: CorelDRAW Home & Student X8 -->
<svg xmlns="http://www.w3.org/2000/svg" xml:space="preserve" width="100%" height="100%" version="1.1" style="shape-rendering:geometricPrecision; text-rendering:geometricPrecision; image-rendering:optimizeQuality; fill-rule:evenodd; clip-rule:evenodd"
viewBox="0 0 1720 1720"
 xmlns:xlink="http://www.w3.org/1999/xlink">
 <defs>
  <style type="text/css">
   <![CDATA[
    .fil0 {fill:white}
   ]]>
  </style>
 </defs>
 <g id="Camada_x0020_1">
  <metadata id="CorelCorpID_0Corel-Layer"/>
  <path class="fil0" d="M860 0c475,0 860,385 860,860 0,475 -385,860 -860,860 -475,0 -860,-385 -860,-860 0,-475 385,-860 860,-860zm652 846l-179 -149 0 -335c0,-7 -3,-14 -8,-19 -5,-5 -11,-7 -19,-7l-157 0c-8,0 -14,2 -19,7 -5,5 -8,12 -8,19l0 160 -200 -167c-17,-14 -38,-21 -62,-21 -24,0 -45,7 -62,21l-590 491c-6,5 -9,11 -9,18 -1,7 1,14 5,19l51 61c5,5 10,8 17,9 7,1 14,-1 20,-6l568 -473 568 473c4,4 10,6 17,6l2 0c8,-1 13,-4 18,-9l51 -61c4,-5 6,-12 5,-19 0,-7 -3,-13 -9,-18zm-652 -300l-472 389c0,1 0,1 0,2 -1,2 -1,2 -1,3l0 394c0,14 5,26 16,37 10,10 23,15 37,15l315 0 0 -315 210 0 0 315 315 0c14,0 27,-5 37,-15 10,-11 16,-23 16,-37l0 -394c0,-2 -1,-4 -1,-5l-472 -389z"/>
 </g>
</svg>
